# xmcd CD database file
#
# Track frame offsets:
#	150
#	17548
#	33848
#	50155
#	72256
#	87106
#	106900
#	123850
#	144240
#	156755
#	178100
#	202459
#	221358
#	246946
#	261428
#	280904
#	301879
#	321379
#
# Disc length: 4526 seconds
#
# Revision: 0
# Processed by: cddbd v1.5.2PL0 Copyright (c) Steve Scherf et al.
# Submitted via: CDex 1.70beta2
#
DISCID=0711ac12
DTITLE=Lonstar - 40 Years of Dreams and Countroversy
DYEAR=2018
DGENRE=Country
TTITLE0=Radio
TTITLE1=Legenda Europejskiego Cowboya
TTITLE2=Sidewalk Country Picker in Nashville (w. George Hamilton V)
TTITLE3=Cały świat, ona i ja
TTITLE4=Highway Guardian Angel (w.Billy Yates)  
TTITLE5=Długi kurs
TTITLE6=Livin In a Slow Lane (w.Dean Miller)
TTITLE7=Byłem chmura
TTITLE8=The Blizzard
TTITLE9=Naywaja mnie buntownikiem
TTITLE10=Most Likely To Fail (w.Jamie Lee Thurston)
TTITLE11=Role (w.Country Family)
TTITLE12=Odlege wizje
TTITLE13=Rózne kolory 
TTITLE14=Red River Valley
TTITLE15=Co to jest to Country?
TTITLE16=Michael Lonstar,  - Cowboy's Gone (w.Buddy Jewell)
TTITLE17=Pobic diabła
EXTD=YEAR: 2018
EXTT0=
EXTT1=
EXTT2=
EXTT3=
EXTT4=
EXTT5=
EXTT6=
EXTT7=
EXTT8=
EXTT9=
EXTT10=
EXTT11=
EXTT12=
EXTT13=
EXTT14=
EXTT15=
EXTT16=
EXTT17=
PLAYORDER=
